<svg width="15" height="14" viewBox="0 0 15 14" fill="none" xmlns="http://www.w3.org/2000/svg">
<mask id="path-1-inside-1_5801_4092" fill="white">
<path d="M0 8H5V14H0V8Z"/>
</mask>
<path d="M0 8H5V14H0V8Z" fill="#FDB022"/>
<path d="M0 8V7.5H-0.5V8H0ZM0 14H-0.5V14.5H0V14ZM0 8.5H5V7.5H0V8.5ZM5 13.5H0V14.5H5V13.5ZM0.5 14V8H-0.5V14H0.5Z" fill="black" mask="url(#path-1-inside-1_5801_4092)"/>
<mask id="path-3-inside-2_5801_4092" fill="white">
<path d="M5 4H10V14H5V4Z"/>
</mask>
<path d="M5 4H10V14H5V4Z" fill="#FDB022"/>
<path d="M5 4V3.5H4.5V4H5ZM5 14H4.5V14.5H5V14ZM5 4.5H10V3.5H5V4.5ZM10 13.5H5V14.5H10V13.5ZM5.5 14V4H4.5V14H5.5Z" fill="black" mask="url(#path-3-inside-2_5801_4092)"/>
<rect x="10.25" y="0.25" width="4.5" height="13.5" fill="#D9D9D9" stroke="black" stroke-width="0.5"/>
</svg>
