<svg width="138" height="17" viewBox="0 0 138 17" fill="none" xmlns="http://www.w3.org/2000/svg">
<path d="M-1.52588e-05 4.04368V1.01093H13.0999V4.04368H8.40029V16.4614H4.7072V4.04368H-1.52588e-05Z" fill="black"/>
<path d="M13.7224 16.4614V4.87357H17.3171V6.98595H17.4382C17.6501 6.22147 17.9957 5.65314 18.475 5.28096C18.9543 4.90375 19.5118 4.71515 20.1475 4.71515C20.3191 4.71515 20.4957 4.72772 20.6773 4.75287C20.8589 4.77299 21.0279 4.80568 21.1843 4.85095V8.05722C21.0078 7.99687 20.7756 7.94908 20.4881 7.91388C20.2056 7.87868 19.9533 7.86107 19.7313 7.86107C19.2924 7.86107 18.8963 7.95915 18.5431 8.1553C18.195 8.34642 17.92 8.61551 17.7182 8.96251C17.5214 9.30454 17.4231 9.70686 17.4231 10.1696V16.4614H13.7224Z" fill="black"/>
<path d="M25.541 16.6487C24.7993 16.6487 24.1409 16.5255 23.5657 16.2791C22.9957 16.0276 22.5441 15.6504 22.2111 15.1474C21.8831 14.6394 21.7192 14.0032 21.7192 13.2387C21.7192 12.595 21.8327 12.0518 22.0597 11.6092C22.2868 11.1666 22.5996 10.807 22.9981 10.5304C23.3967 10.2538 23.8558 10.0451 24.3755 9.90422C24.8952 9.75834 25.4502 9.66027 26.0405 9.60999C26.7014 9.54962 27.2336 9.48677 27.6372 9.42135C28.0409 9.35098 28.3335 9.2529 28.5151 9.12712C28.7018 8.99638 28.7951 8.81279 28.7951 8.57644V8.53874C28.7951 8.15144 28.6615 7.85219 28.394 7.64095C28.1267 7.42971 27.7659 7.32409 27.3119 7.32409C26.8224 7.32409 26.429 7.42971 26.1312 7.64095C25.8336 7.85219 25.6444 8.1439 25.5636 8.51608L22.1506 8.39537C22.2515 7.69124 22.5113 7.06257 22.93 6.50932C23.3539 5.95106 23.9341 5.51349 24.6706 5.19663C25.4123 4.87475 26.3028 4.71381 27.3421 4.71381C28.0838 4.71381 28.7674 4.80182 29.393 4.97785C30.0186 5.14886 30.5635 5.40033 31.0276 5.73227C31.4919 6.05918 31.8501 6.46154 32.1023 6.93934C32.3596 7.41714 32.4882 7.96283 32.4882 8.57644V16.4526H29.0071V14.8381H28.9162C28.7093 15.2304 28.4445 15.5623 28.1216 15.8339C27.8037 16.1056 27.4279 16.3092 26.994 16.445C26.5652 16.5808 26.0808 16.6487 25.541 16.6487ZM26.6837 14.2345C27.0822 14.2345 27.4405 14.1541 27.7583 13.9932C28.0812 13.8322 28.3385 13.6109 28.5302 13.3293C28.7219 13.0426 28.8179 12.7106 28.8179 12.3334V11.232C28.7119 11.2873 28.5833 11.3376 28.4319 11.3828C28.2856 11.4282 28.1241 11.4709 27.9476 11.5111C27.7709 11.5514 27.5894 11.5866 27.4026 11.6167C27.216 11.6469 27.0369 11.6746 26.8653 11.6997C26.5172 11.7551 26.2196 11.8406 25.9723 11.9563C25.7301 12.0719 25.5435 12.2228 25.4123 12.4089C25.2862 12.59 25.2231 12.8062 25.2231 13.0577C25.2231 13.4399 25.3593 13.7316 25.6318 13.9328C25.9092 14.134 26.2599 14.2345 26.6837 14.2345Z" fill="black"/>
<path d="M40.1683 16.6802C38.9423 16.6802 37.8904 16.4287 37.0125 15.9258C36.1397 15.4228 35.4687 14.7237 34.9995 13.8285C34.5303 12.9282 34.2957 11.8871 34.2957 10.7052C34.2957 9.51828 34.5303 8.47715 34.9995 7.5819C35.4737 6.68163 36.1473 5.98002 37.0201 5.47707C37.898 4.97413 38.9449 4.72266 40.1608 4.72266C41.2354 4.72266 42.1713 4.91629 42.9684 5.30356C43.7706 5.69083 44.3963 6.23904 44.8453 6.94819C45.2993 7.65232 45.539 8.47967 45.5642 9.4302H42.1057C42.0351 8.83678 41.8332 8.37153 41.5003 8.03456C41.1723 7.69758 40.7435 7.52909 40.2137 7.52909C39.7849 7.52909 39.409 7.6498 39.0862 7.89121C38.7632 8.1276 38.5109 8.47967 38.3293 8.94742C38.1527 9.41011 38.0645 9.98344 38.0645 10.6675C38.0645 11.3515 38.1527 11.9299 38.3293 12.4027C38.5109 12.8704 38.7632 13.225 39.0862 13.4664C39.409 13.7027 39.7849 13.821 40.2137 13.821C40.5568 13.821 40.8595 13.748 41.1219 13.6022C41.3893 13.4563 41.6088 13.2425 41.7802 12.9609C41.9518 12.6742 42.0603 12.3272 42.1057 11.9198H45.5642C45.5289 12.8754 45.2893 13.7103 44.8453 14.4245C44.4063 15.1387 43.7883 15.6944 42.9912 16.0918C42.199 16.4841 41.2581 16.6802 40.1683 16.6802Z" fill="black"/>
<path d="M50.7955 13.4212L50.8106 9.02285H51.3252L54.5946 4.87355H58.7871L53.9286 10.8184H52.9523L50.7955 13.4212ZM47.4581 16.4614V1.01093H51.1587V16.4614H47.4581ZM54.6778 16.4614L51.6356 11.6482L54.0724 9.03038L58.9536 16.4614H54.6778Z" fill="black"/>
<path d="M60.1204 16.4614V1.01093H70.7003V4.04368H63.8665V7.21225H70.0268V10.2526H63.8665V16.4614H60.1204Z" fill="black"/>
<path d="M72.5866 16.4614V4.87355H76.2873V16.4614H72.5866ZM74.4408 3.52314C73.921 3.52314 73.4746 3.35213 73.1012 3.01013C72.7279 2.6631 72.5412 2.24565 72.5412 1.7578C72.5412 1.27497 72.7279 0.862551 73.1012 0.52055C73.4746 0.173517 73.921 0 74.4408 0C74.9655 0 75.4119 0.173517 75.7803 0.52055C76.1536 0.862551 76.3403 1.27497 76.3403 1.7578C76.3403 2.24565 76.1536 2.6631 75.7803 3.01013C75.4119 3.35213 74.9655 3.52314 74.4408 3.52314Z" fill="black"/>
<path d="M82.3434 9.84385V16.4526H78.6428V4.86469H82.1619V6.99215H82.2905C82.5478 6.283 82.9867 5.72724 83.6073 5.32488C84.2279 4.9175 84.967 4.71381 85.8247 4.71381C86.642 4.71381 87.3508 4.89738 87.9513 5.26453C88.5565 5.62665 89.0262 6.13463 89.3592 6.78846C89.6967 7.43726 89.8636 8.19671 89.8583 9.06684V16.4526H86.1577V9.79101C86.1627 9.1473 85.9987 8.64434 85.6658 8.28221C85.3378 7.92009 84.8812 7.73902 84.296 7.73902C83.9075 7.73902 83.5644 7.82452 83.2667 7.99552C82.9741 8.1615 82.7471 8.4004 82.5856 8.71223C82.4292 9.02408 82.3485 9.40126 82.3434 9.84385Z" fill="black"/>
<path d="M96.3866 16.6185C95.5288 16.6185 94.7492 16.3972 94.0477 15.9547C93.3462 15.5121 92.7868 14.8482 92.3677 13.963C91.9485 13.0778 91.7399 11.9788 91.7399 10.6662C91.7399 9.30319 91.9565 8.18163 92.3907 7.30147C92.8241 6.42132 93.3915 5.77 94.093 5.34753C94.7998 4.92505 95.559 4.71382 96.3715 4.71382C96.9815 4.71382 97.5036 4.81944 97.9378 5.03067C98.3712 5.23688 98.7299 5.50344 99.0123 5.83035C99.2947 6.15727 99.5095 6.49676 99.6552 6.84882H99.7315V1.00208H103.432V16.4526H99.7688V14.5741H99.6552C99.4989 14.9312 99.2769 15.2656 98.9892 15.5775C98.7024 15.8892 98.341 16.1407 97.9077 16.3318C97.4788 16.523 96.9717 16.6185 96.3866 16.6185ZM97.6723 13.7443C98.1217 13.7443 98.5053 13.6185 98.8231 13.367C99.141 13.1105 99.3852 12.7509 99.5575 12.2882C99.7289 11.8254 99.8141 11.2823 99.8141 10.6587C99.8141 10.0249 99.7289 9.47925 99.5575 9.02153C99.3906 8.56388 99.1464 8.2118 98.8231 7.96536C98.5053 7.71891 98.1217 7.5957 97.6723 7.5957C97.2133 7.5957 96.8252 7.72144 96.5073 7.97291C96.1894 8.22438 95.947 8.57893 95.781 9.03666C95.6194 9.4943 95.5386 10.035 95.5386 10.6587C95.5386 11.2823 95.622 11.8254 95.7881 12.2882C95.955 12.7509 96.1948 13.1105 96.5073 13.367C96.8252 13.6185 97.2133 13.7443 97.6723 13.7443Z" fill="black"/>
<path d="M111.215 16.6802C109.999 16.6802 108.949 16.4413 108.067 15.9635C107.189 15.4807 106.513 14.7942 106.039 13.9039C105.569 13.0087 105.335 11.9449 105.335 10.7127C105.335 9.51571 105.572 8.4696 106.046 7.57436C106.52 6.67408 107.189 5.97499 108.052 5.47707C108.914 4.97413 109.931 4.72266 111.101 4.72266C111.929 4.72266 112.685 4.8509 113.372 5.10741C114.058 5.36391 114.651 5.74364 115.15 6.24658C115.65 6.74953 116.038 7.37067 116.316 8.10999C116.593 8.8443 116.732 9.68673 116.732 10.6373V11.5577L108.982 11.6557V9.47552L113.288 9.41515C113.284 9.02284 113.19 8.67328 113.008 8.3665C112.827 8.05971 112.577 7.8208 112.259 7.6498C111.946 7.47377 111.586 7.38575 111.177 7.38575C110.764 7.38575 110.392 7.4788 110.065 7.66489C109.736 7.84595 109.477 8.09491 109.285 8.41176C109.093 8.72356 108.992 9.07817 108.982 9.47552V11.6557C108.982 12.1285 109.076 12.5435 109.262 12.9006C109.449 13.2526 109.714 13.5268 110.057 13.7229C110.4 13.9191 110.809 14.0171 111.283 14.0171C111.611 14.0171 111.908 13.9718 112.176 13.8813C112.444 13.7908 112.673 13.6575 112.865 13.4814C113.056 13.3055 113.2 13.0892 113.296 12.8327L116.694 12.9308C116.553 13.6902 116.242 14.3516 115.763 14.9149C115.289 15.4731 114.666 15.9082 113.894 16.22C113.122 16.5268 112.229 16.6802 111.215 16.6802Z" fill="black"/>
<path d="M118.622 16.4614V4.87357H122.217V6.98595H122.337C122.55 6.22147 122.895 5.65314 123.374 5.28096C123.854 4.90375 124.412 4.71515 125.047 4.71515C125.219 4.71515 125.395 4.72772 125.577 4.75287C125.759 4.77299 125.927 4.80568 126.084 4.85095V8.05722C125.907 7.99687 125.675 7.94908 125.387 7.91388C125.105 7.87868 124.853 7.86107 124.631 7.86107C124.192 7.86107 123.796 7.95915 123.443 8.1553C123.095 8.34642 122.819 8.61551 122.618 8.96251C122.421 9.30454 122.322 9.70686 122.322 10.1696V16.4614H118.622Z" fill="black"/>
<path d="M137.865 12.0266C137.865 14.471 135.877 16.4526 133.425 16.4526C130.974 16.4526 128.985 14.471 128.985 12.0266C128.985 9.58227 130.974 7.60071 133.425 7.60071C135.877 7.60071 137.865 9.58227 137.865 12.0266Z" fill="#2970FF"/>
</svg>
